# xmcd CD database file
#
# Track frame offsets:
#	150
#	11925
#	21323
#	29888
#	40696
#	51800
#	61049
#	74600
#	84234
#	96350
#	108221
#	118090
#	131179
#	147147
#	162328
#	176359
#	189226
#	204635
#	215098
#	227345
#	239730
#
# Disc length: 3340 seconds
#
# Revision: 0
# Processed by: cddbd v1.5.2PL0 Copyright (c) Steve Scherf et al.
# Submitted via: ACXtractor (MTCDDB.DLL V2003.07.15)
#
DISCID=300d0a15
DTITLE=Rick and Thel - Let's Pull together
DYEAR=1998
DGENRE=Country
TTITLE0=I'll Never be fooled again
TTITLE1=Red Wings
TTITLE2=Fuedin' and Fighting
TTITLE3=Everybody Knew but you and Me
TTITLE4=We Must have been out of our Minds
TTITLE5=Mr and Mrs Minus the Kisses
TTITLE6=Maker of Raindrops and Roses
TTITLE7=House of Blues
TTITLE8=Come on Home Mary Darling
TTITLE9=What Would you Do
TTITLE10=She's a He
TTITLE11=Big Deal
TTITLE12=Bordertown
TTITLE13=Come the Day
TTITLE14=Riverboat Love Song
TTITLE15=If I Hadn't Married You
TTITLE16=Mary Jane Malone
TTITLE17=Under the Old Wattle Tree
TTITLE18=Memories of Home
TTITLE19=Stockmen in Uniform
TTITLE20=Sunny Australian Sweatheart
EXTD=ID3G:   2 YEAR: 1998
EXTT0=
EXTT1=
EXTT2=
EXTT3=
EXTT4=
EXTT5=
EXTT6=
EXTT7=
EXTT8=
EXTT9=
EXTT10=
EXTT11=
EXTT12=
EXTT13=
EXTT14=
EXTT15=
EXTT16=
EXTT17=
EXTT18=
EXTT19=
EXTT20=
PLAYORDER=
